<?xml version="1.0" standalone="no"?><!DOCTYPE svg PUBLIC "-//W3C//DTD SVG 1.1//EN" "http://www.w3.org/Graphics/SVG/1.1/DTD/svg11.dtd"><svg t="1532415050144" class="icon" style="" viewBox="0 0 1024 1024" version="1.1" xmlns="http://www.w3.org/2000/svg" p-id="2486" xmlns:xlink="http://www.w3.org/1999/xlink" width="200" height="200"><defs><style type="text/css"></style></defs><path d="M737 62h-450c-123.75 0-225 101.25-225 225v450c0 123.75 101.25 225 225 225h450c123.75 0 225-101.25 225-225v-450c0-123.75-101.25-225-225-225zM905.75 483.875h-112.5v56.25h112.5v196.875c0 95.625-73.125 168.75-168.75 168.75h-196.875v-112.5h-56.25v112.5h-196.875c-95.625 0-168.75-73.125-168.75-168.75v-196.875h112.5v-56.25h-112.5v-196.875c0-95.625 73.125-168.75 168.75-168.75h196.875v112.5h56.25v-112.5h196.875c95.625 0 168.75 73.125 168.75 168.75v196.875z" p-id="2487"></path><path d="M287 793.25h56.25c0-95.625 73.125-168.75 168.75-168.75s168.75 73.125 168.75 168.75h56.25c0-90-50.625-163.125-123.75-202.5 39.375-28.125 67.5-78.75 67.5-135 0-95.625-73.125-168.75-168.75-168.75s-168.75 73.125-168.75 168.75c0 56.25 28.125 106.875 67.5 135-73.125 39.375-123.75 112.5-123.75 202.5zM399.5 455.75c0-61.875 50.625-112.5 112.5-112.5s112.5 50.625 112.5 112.5c0 61.875-50.625 112.5-112.5 112.5s-112.5-50.625-112.5-112.5z" p-id="2488"></path></svg>